<svg width="24" height="24" viewBox="0 0 24 24" fill="none" xmlns="http://www.w3.org/2000/svg">
<path d="M20.0957 8.04323C20.9797 8.32723 21.5957 9.17123 21.5957 10.1402V14.4262C21.5957 15.5622 20.7487 16.5262 19.6157 16.6192C19.2757 16.6462 18.9357 16.6712 18.5957 16.6912V19.7822L15.5957 16.7822C14.2417 16.7822 12.9017 16.7272 11.5757 16.6192C11.287 16.5959 11.0062 16.5135 10.7507 16.3772M20.0957 8.04323C19.9412 7.99349 19.7815 7.96162 19.6197 7.94823C16.9416 7.72591 14.2498 7.72591 11.5717 7.94823C10.4407 8.04223 9.5957 9.00523 9.5957 10.1402V14.4262C9.5957 15.2632 10.0557 16.0062 10.7507 16.3772M20.0957 8.04323V6.16923C20.0957 4.54823 18.9437 3.14323 17.3357 2.93423C15.2665 2.66602 13.1822 2.53174 11.0957 2.53223C8.9807 2.53223 6.8977 2.66923 4.8557 2.93423C3.2477 3.14323 2.0957 4.54823 2.0957 6.16923V12.3952C2.0957 14.0162 3.2477 15.4212 4.8557 15.6302C5.4327 15.7052 6.0127 15.7702 6.5957 15.8242V20.5322L10.7507 16.3772" stroke="#060034" stroke-width="1.5" stroke-linecap="round" stroke-linejoin="round"/>
</svg>
