<svg width="24" height="24" viewBox="0 0 24 24" fill="none" xmlns="http://www.w3.org/2000/svg">
<path d="M20.0958 9.13281C20.8527 9.56862 21.4663 10.2152 21.862 10.9938C22.2576 11.7724 22.4182 12.6493 22.324 13.5175C22.2299 14.3858 21.8851 15.2079 21.3318 15.8836C20.7785 16.5593 20.0405 17.0593 19.2078 17.3228C18.9135 18.6583 18.172 19.8532 17.106 20.7097C16.0399 21.5663 14.7133 22.0331 13.3458 22.0328H11.0958C10.8969 22.0328 10.7062 21.9538 10.5655 21.8131C10.4248 21.6725 10.3458 21.4817 10.3458 21.2828C10.3458 21.0839 10.4248 20.8931 10.5655 20.7525C10.7062 20.6118 10.8969 20.5328 11.0958 20.5328H13.3458C14.2768 20.5331 15.1849 20.2447 15.9451 19.7075C16.7053 19.1702 17.2803 18.4104 17.5908 17.5328H17.0958C16.8969 17.5328 16.7062 17.4538 16.5655 17.3131C16.4248 17.1725 16.3458 16.9817 16.3458 16.7828V9.28281C16.3458 9.0839 16.4248 8.89313 16.5655 8.75248C16.7062 8.61183 16.8969 8.53281 17.0958 8.53281H17.8458C18.0888 8.53281 18.3273 8.55231 18.5613 8.58981C18.3925 6.92615 17.6121 5.38439 16.3714 4.26324C15.1307 3.1421 13.518 2.5214 11.8458 2.5214C10.1736 2.5214 8.56094 3.1421 7.32025 4.26324C6.07956 5.38439 5.29918 6.92615 5.13033 8.58981C5.36695 8.55191 5.6062 8.53285 5.84583 8.53281H6.59583C6.79474 8.53281 6.98551 8.61183 7.12616 8.75248C7.26681 8.89313 7.34583 9.0839 7.34583 9.28281V16.7828C7.34583 16.9817 7.26681 17.1725 7.12616 17.3131C6.98551 17.4538 6.79474 17.5328 6.59583 17.5328H5.84583C4.85431 17.5339 3.89017 17.2075 3.10323 16.6043C2.31629 16.0011 1.7506 15.1549 1.49406 14.1971C1.23751 13.2394 1.30448 12.2237 1.68455 11.3079C2.06461 10.3921 2.73651 9.62747 3.59583 9.13281C3.59583 6.94478 4.46503 4.84636 6.0122 3.29918C7.55938 1.75201 9.6578 0.882813 11.8458 0.882812C14.0339 0.882813 16.1323 1.75201 17.6795 3.29918C19.2266 4.84636 20.0958 6.94478 20.0958 9.13281ZM5.84583 10.0328C5.05018 10.0328 4.28712 10.3489 3.72451 10.9115C3.1619 11.4741 2.84583 12.2372 2.84583 13.0328C2.84583 13.8285 3.1619 14.5915 3.72451 15.1541C4.28712 15.7167 5.05018 16.0328 5.84583 16.0328V10.0328ZM20.8458 13.0328C20.8458 12.2372 20.5298 11.4741 19.9672 10.9115C19.4045 10.3489 18.6415 10.0328 17.8458 10.0328V16.0328C18.6415 16.0328 19.4045 15.7167 19.9672 15.1541C20.5298 14.5915 20.8458 13.8285 20.8458 13.0328Z" fill="#060034"/>
</svg>
