<svg width="24" height="24" viewBox="0 0 24 24" fill="none" xmlns="http://www.w3.org/2000/svg">
<path d="M16.9044 15.0532C17.3722 14.7338 17.9209 14.5533 18.487 14.5327C19.0531 14.512 19.6135 14.6521 20.1033 14.9366C20.5931 15.2212 20.9923 15.6386 21.2548 16.1406C21.5173 16.6426 21.6322 17.2086 21.5864 17.7732C20.3866 18.1926 19.1122 18.3557 17.8454 18.2522C17.8416 17.1188 17.5152 16.009 16.9044 15.0542C16.3624 14.204 15.6146 13.5043 14.7303 13.0197C13.846 12.5352 12.8538 12.2815 11.8454 12.2822C10.8373 12.2817 9.84527 12.5354 8.96117 13.02C8.07708 13.5045 7.32945 14.2042 6.78744 15.0542M17.8444 18.2512L17.8454 18.2822C17.8454 18.5072 17.8334 18.7292 17.8084 18.9482C15.9938 19.9893 13.9375 20.5356 11.8454 20.5322C9.67544 20.5322 7.63844 19.9562 5.88244 18.9482C5.85673 18.7168 5.84438 18.4841 5.84544 18.2512M5.84544 18.2512C4.57907 18.3585 3.30535 18.1959 2.10644 17.7742C2.06079 17.2098 2.17584 16.6439 2.43827 16.1421C2.70071 15.6403 3.09981 15.223 3.58945 14.9385C4.07908 14.654 4.63924 14.5139 5.20516 14.5344C5.77108 14.5548 6.31965 14.7351 6.78744 15.0542M5.84544 18.2512C5.84904 17.1179 6.17707 16.0091 6.78744 15.0542M14.8454 6.28223C14.8454 7.07788 14.5294 7.84094 13.9668 8.40355C13.4042 8.96616 12.6411 9.28223 11.8454 9.28223C11.0498 9.28223 10.2867 8.96616 9.72412 8.40355C9.16151 7.84094 8.84544 7.07788 8.84544 6.28223C8.84544 5.48658 9.16151 4.72352 9.72412 4.16091C10.2867 3.5983 11.0498 3.28223 11.8454 3.28223C12.6411 3.28223 13.4042 3.5983 13.9668 4.16091C14.5294 4.72352 14.8454 5.48658 14.8454 6.28223ZM20.8454 9.28223C20.8454 9.5777 20.7872 9.87028 20.6742 10.1433C20.5611 10.4162 20.3954 10.6643 20.1864 10.8732C19.9775 11.0821 19.7295 11.2479 19.4565 11.361C19.1835 11.474 18.8909 11.5322 18.5954 11.5322C18.3 11.5322 18.0074 11.474 17.7344 11.361C17.4614 11.2479 17.2134 11.0821 17.0045 10.8732C16.7955 10.6643 16.6298 10.4162 16.5167 10.1433C16.4036 9.87028 16.3454 9.5777 16.3454 9.28223C16.3454 8.68549 16.5825 8.11319 17.0045 7.69124C17.4264 7.26928 17.9987 7.03223 18.5954 7.03223C19.1922 7.03223 19.7645 7.26928 20.1864 7.69124C20.6084 8.11319 20.8454 8.68549 20.8454 9.28223ZM7.34544 9.28223C7.34544 9.5777 7.28725 9.87028 7.17417 10.1433C7.0611 10.4162 6.89537 10.6643 6.68643 10.8732C6.4775 11.0821 6.22946 11.2479 5.95648 11.361C5.6835 11.474 5.39092 11.5322 5.09544 11.5322C4.79997 11.5322 4.50739 11.474 4.23441 11.361C3.96142 11.2479 3.71339 11.0821 3.50445 10.8732C3.29552 10.6643 3.12979 10.4162 3.01672 10.1433C2.90364 9.87028 2.84544 9.5777 2.84544 9.28223C2.84544 8.68549 3.0825 8.11319 3.50445 7.69124C3.92641 7.26928 4.49871 7.03223 5.09544 7.03223C5.69218 7.03223 6.26448 7.26928 6.68643 7.69124C7.10839 8.11319 7.34544 8.68549 7.34544 9.28223Z" stroke="#060034" stroke-width="1.5" stroke-linecap="round" stroke-linejoin="round"/>
</svg>
