<svg width="24" height="24" viewBox="0 0 24 24" fill="none" xmlns="http://www.w3.org/2000/svg">
<path d="M3.5961 9.30823C3.7081 9.29123 3.8231 9.28223 3.9401 9.28223H19.7521C19.8691 9.28223 19.9841 9.29123 20.0961 9.30823M3.5961 9.30823C3.01086 9.39886 2.48495 9.71657 2.13245 10.1924C1.77994 10.6683 1.62926 11.264 1.7131 11.8502L2.5701 17.8502C2.64664 18.3864 2.91399 18.8769 3.32307 19.2318C3.73216 19.5867 4.25552 19.7821 4.7971 19.7822H18.8961C19.4377 19.7821 19.961 19.5867 20.3701 19.2318C20.7792 18.8769 21.0466 18.3864 21.1231 17.8502L21.9801 11.8502C22.0639 11.264 21.9133 10.6683 21.5607 10.1924C21.2082 9.71657 20.6813 9.39886 20.0961 9.30823M3.5961 9.30823L3.5971 5.53223C3.5971 4.93566 3.83401 4.36352 4.25575 3.94159C4.67749 3.51966 5.24953 3.28249 5.8461 3.28223H9.7251C10.1228 3.28258 10.5041 3.44084 10.7851 3.72223L12.9071 5.84223C13.1881 6.12361 13.5694 6.28188 13.9671 6.28223H17.8461C18.4428 6.28223 19.0151 6.51928 19.4371 6.94124C19.859 7.36319 20.0961 7.93549 20.0961 8.53223V9.30823" stroke="#060034" stroke-width="1.5" stroke-linecap="round" stroke-linejoin="round"/>
</svg>
